<?xml version="1.0" encoding="iso-8859-1"?>
<!-- Generator: Adobe Illustrator 19.0.0, SVG Export Plug-In . SVG Version: 6.00 Build 0)  -->
<svg version="1.1" id="Layer_1" xmlns="http://www.w3.org/2000/svg" xmlns:xlink="http://www.w3.org/1999/xlink" x="0px" y="0px"
	 viewBox="0 0 512.002 512.002" style="enable-background:new 0 0 512.002 512.002;" xml:space="preserve">
<circle style="fill:#324A5E;" cx="256.001" cy="256" r="256"/>
<path style="fill:#2B3B4E;" d="M510.732,281.579L401.097,173.087l-41.413,43.575l-61.614-63.857l-30.527,39.296l59.121,58.346
	L115.511,388.953l123.113,122.449c5.744,0.384,11.535,0.6,17.377,0.6C388.752,512,497.896,410.953,510.732,281.579z"/>
<path style="fill:#FFFFFF;" d="M401.097,367.075c0,5.356-33.956,9.699-75.841,9.699s-75.842-4.343-75.842-9.699v-38.798h151.685
	v38.798H401.097z"/>
<path style="fill:#E6F3FF;" d="M325.469,328.278v48.497c41.787-0.016,75.628-4.351,75.628-9.699v-38.798H325.469z"/>
<path style="fill:#324A5E;" d="M401.097,332.098c0,5.356-33.956,9.699-75.841,9.699s-75.842-4.343-75.842-9.699V293.3h151.685
	v38.798H401.097z"/>
<path style="fill:#2B3B4E;" d="M325.469,293.3v48.497c41.787-0.016,75.628-4.351,75.628-9.699V293.3H325.469z"/>
<path style="fill:#E6F3FF;" d="M401.097,328.278c0,5.356-33.956,9.699-75.841,9.699s-75.842-4.343-75.842-9.699V289.48h151.685
	v38.798H401.097z"/>
<path style="fill:#CFDBE6;" d="M325.469,289.48v48.497c41.787-0.016,75.628-4.351,75.628-9.699V289.48H325.469z"/>
<path style="fill:#324A5E;" d="M401.097,293.3c0,5.356-33.956,9.699-75.841,9.699s-75.842-4.343-75.842-9.699v-38.798h151.685V293.3
	H401.097z"/>
<path style="fill:#2B3B4E;" d="M325.469,254.504v48.497c41.787-0.016,75.628-4.351,75.628-9.699v-38.798H325.469z"/>
<path style="fill:#FFFFFF;" d="M401.097,289.48c0,5.356-33.956,9.699-75.841,9.699s-75.842-4.342-75.842-9.699v-38.798h151.685
	v38.798H401.097z"/>
<path style="fill:#E6F3FF;" d="M325.469,250.682v48.497c41.787-0.016,75.628-4.351,75.628-9.699v-38.798H325.469z"/>
<path style="fill:#324A5E;" d="M401.097,254.504c0,5.356-33.956,9.699-75.841,9.699s-75.842-4.343-75.842-9.699v-38.798h151.685
	v38.798H401.097z"/>
<path style="fill:#2B3B4E;" d="M325.469,215.705v48.497c41.787-0.016,75.628-4.351,75.628-9.699v-38.798L325.469,215.705
	L325.469,215.705z"/>
<path style="fill:#E6F3FF;" d="M401.097,250.682c0,5.356-33.956,9.699-75.841,9.699s-75.842-4.342-75.842-9.699v-38.796h151.685
	v38.796H401.097z"/>
<path style="fill:#CFDBE6;" d="M325.469,211.885v48.497c41.787-0.016,75.628-4.351,75.628-9.699v-38.798H325.469z"/>
<path style="fill:#324A5E;" d="M401.097,215.705c0,5.356-33.956,9.699-75.841,9.699s-75.842-4.343-75.842-9.699v-38.798h151.685
	v38.798H401.097z"/>
<path style="fill:#2B3B4E;" d="M325.469,176.909v48.497c41.787-0.016,75.628-4.351,75.628-9.699v-38.798H325.469z"/>
<path style="fill:#FFFFFF;" d="M401.097,211.885c0,5.356-33.956,9.699-75.841,9.699s-75.842-4.343-75.842-9.699v-38.798h151.685
	v38.798H401.097z"/>
<g>
	<path style="fill:#E6F3FF;" d="M325.469,173.087v48.497c41.787-0.016,75.628-4.351,75.628-9.699v-38.798L325.469,173.087
		L325.469,173.087z"/>
	<ellipse style="fill:#E6F3FF;" cx="325.25" cy="173.08" rx="75.842" ry="9.699"/>
</g>
<path style="fill:#CFDBE6;" d="M401.097,173.087c0-5.348-33.84-9.683-75.628-9.699v19.397
	C367.257,182.77,401.097,178.435,401.097,173.087z"/>
<path style="fill:#FFFFFF;" d="M298.069,387.356c0,6.477-41.057,11.728-91.701,11.728s-91.701-5.251-91.701-11.728v-46.911h183.401
	v46.911H298.069z"/>
<path style="fill:#E6F3FF;" d="M206.628,340.447v58.637c50.524-0.017,91.441-5.261,91.441-11.726v-46.911H206.628z"/>
<path style="fill:#324A5E;" d="M298.069,345.066c0,6.477-41.057,11.728-91.701,11.728s-91.701-5.251-91.701-11.728v-46.911h183.401
	v46.911H298.069z"/>
<path style="fill:#2B3B4E;" d="M206.628,298.156v58.637c50.524-0.017,91.441-5.261,91.441-11.726v-46.911L206.628,298.156
	L206.628,298.156z"/>
<path style="fill:#E6F3FF;" d="M298.069,340.447c0,6.477-41.057,11.728-91.701,11.728s-91.701-5.251-91.701-11.728v-46.911h183.401
	v46.911H298.069z"/>
<path style="fill:#CFDBE6;" d="M206.628,293.536v58.637c50.524-0.017,91.441-5.261,91.441-11.726v-46.911L206.628,293.536
	L206.628,293.536z"/>
<path style="fill:#324A5E;" d="M298.069,298.156c0,6.477-41.057,11.728-91.701,11.728s-91.701-5.251-91.701-11.728v-46.911h183.401
	v46.911H298.069z"/>
<path style="fill:#2B3B4E;" d="M206.628,251.245v58.637c50.524-0.017,91.441-5.261,91.441-11.726v-46.911H206.628z"/>
<path style="fill:#FFFFFF;" d="M298.069,293.536c0,6.477-41.057,11.728-91.701,11.728s-91.701-5.251-91.701-11.728v-46.911h183.401
	v46.911H298.069z"/>
<path style="fill:#E6F3FF;" d="M206.628,246.625v58.637c50.524-0.017,91.441-5.261,91.441-11.726v-46.911L206.628,246.625
	L206.628,246.625z"/>
<path style="fill:#324A5E;" d="M298.069,251.245c0,6.477-41.057,11.728-91.701,11.728s-91.701-5.251-91.701-11.728v-46.911h183.401
	v46.911H298.069z"/>
<path style="fill:#2B3B4E;" d="M206.628,204.336v58.637c50.524-0.017,91.441-5.261,91.441-11.726v-46.911H206.628z"/>
<path style="fill:#E6F3FF;" d="M298.069,246.625c0,6.477-41.057,11.728-91.701,11.728s-91.701-5.251-91.701-11.728v-46.911h183.401
	v46.911H298.069z"/>
<path style="fill:#CFDBE6;" d="M206.628,199.716v58.637c50.524-0.017,91.441-5.261,91.441-11.726v-46.911H206.628L206.628,199.716z"
	/>
<path style="fill:#324A5E;" d="M298.069,204.336c0,6.477-41.057,11.728-91.701,11.728s-91.701-5.251-91.701-11.728v-46.911h183.401
	v46.911H298.069z"/>
<path style="fill:#2B3B4E;" d="M206.628,157.425v58.637c50.524-0.017,91.441-5.261,91.441-11.726v-46.911H206.628z"/>
<path style="fill:#FFFFFF;" d="M298.069,199.716c0,6.477-41.057,11.728-91.701,11.728s-91.701-5.251-91.701-11.728v-46.911h183.401
	v46.911H298.069z"/>
<g>
	<path style="fill:#E6F3FF;" d="M206.628,152.805v58.637c50.524-0.017,91.441-5.261,91.441-11.726v-46.911H206.628z"/>
	<ellipse style="fill:#E6F3FF;" cx="206.37" cy="152.807" rx="91.695" ry="11.728"/>
</g>
<path style="fill:#CFDBE6;" d="M298.069,152.805c0-6.466-40.917-11.709-91.441-11.726v23.454
	C257.152,164.514,298.069,159.272,298.069,152.805z"/>
<g>
</g>
<g>
</g>
<g>
</g>
<g>
</g>
<g>
</g>
<g>
</g>
<g>
</g>
<g>
</g>
<g>
</g>
<g>
</g>
<g>
</g>
<g>
</g>
<g>
</g>
<g>
</g>
<g>
</g>
</svg>
